<svg xmlns="http://www.w3.org/2000/svg" width="32" height="31.999" viewBox="0 0 32 31.999"><defs><style>.a{fill:#0177b5;}.b{fill:#fff;}</style></defs><path class="a" d="M29.63,0H2.362A2.336,2.336,0,0,0,0,2.306V29.69A2.339,2.339,0,0,0,2.362,32h27.27A2.342,2.342,0,0,0,32,29.69V2.306A2.34,2.34,0,0,0,29.63,0Z" transform="translate(0 -0.001)"/><path class="b" d="M4.745,12H9.5v15.27H4.745ZM7.119,4.4a2.75,2.75,0,1,1-1.946.8,2.752,2.752,0,0,1,1.946-.8m5.35,7.6h4.552v2.087h.063a4.994,4.994,0,0,1,4.5-2.466c4.806,0,5.693,3.163,5.693,7.274v8.376H22.534V19.84c0-1.77-.032-4.05-2.466-4.05-2.47,0-2.85,1.93-2.85,3.92v7.554H12.476V11.994Z" transform="translate(0 -0.001)"/></svg>