<svg xmlns="http://www.w3.org/2000/svg" width="44.656" height="45.656" viewBox="0 0 44.656 45.656"><defs><style>.a,.b{fill:#5a4fb7;}.a,.c{stroke:#222;stroke-width:2px;}.c{fill:#f6f5ff;}</style></defs><g transform="translate(0 1)"><g transform="translate(7.049)"><path class="a" d="M80,344h20.439v5.11H80Zm0,0" transform="translate(-80 -313.091)"/><path class="b" d="M118.6,448H105.46L104,451.65h16.059Zm0,0" transform="translate(-101.81 -407.724)"/><path class="c" d="M197.11,11.778V7.3h-3.65A1.46,1.46,0,0,1,192,5.84V1.46A1.46,1.46,0,0,1,193.46,0h14.6a1.46,1.46,0,0,1,1.46,1.46V5.84a1.46,1.46,0,0,1-1.46,1.46h-5.576Zm0,0" transform="translate(-181.78 0)"/></g><path class="b" d="M224,32h1.46v1.46H224Zm0,0" transform="translate(-203.842 -29.08)"/><path class="b" d="M256,32h5.84v1.46H256Zm0,0" transform="translate(-232.998 -29.08)"/><path class="b" d="M336,32h1.46v1.46H336Zm0,0" transform="translate(-305.763 -29.08)"/><path class="b" d="M36.664,152.272l-.582-5.806a5.03,5.03,0,0,0,4.252-4.952v-9.323H37.453V131.2a2.579,2.579,0,0,0-1.4-2.3,4.278,4.278,0,0,0,1.4-3.164V124.3a4.322,4.322,0,0,0-8.643,0v1.434a4.307,4.307,0,0,0,2.847,4.04l-3.866,3.849H23.753a2.879,2.879,0,0,0-2.074-2.57l-2.952-.839v-1.281a4.28,4.28,0,0,0,1.441-3.2V124.3a4.322,4.322,0,0,0-8.643,0v1.434a4.283,4.283,0,0,0,1.441,3.2v1.282l-2.952.839a2.881,2.881,0,0,0-2.089,2.758v2.68H5.042v4.3H6.482v11.474H0v1.434H44.656v-1.434ZM30.251,140.8v-3.289l5.1-5.082a2.242,2.242,0,0,0,.638-1.375,1.163,1.163,0,0,1,.021.149v8.88a2.159,2.159,0,0,1-2.161,2.151H28.09V140.8Zm-2.161,5.737h3.67l.576,5.737H28.09Zm5.117,0h1.433l.576,5.737H33.783Zm4.246-6.454v-6.454h1.441v7.889a3.6,3.6,0,0,1-3.6,3.586h-7.2v-1.434h5.762A3.6,3.6,0,0,0,37.453,140.08Zm-7.2-14.343V124.3a2.881,2.881,0,0,1,5.762,0v1.434a2.881,2.881,0,0,1-5.762,0Zm-1.863,9.323,4.805-4.785a.806.806,0,1,1,1.142,1.137l-5.1,5.082H21.608a.717.717,0,1,1,0-1.434ZM12.965,124.3a2.881,2.881,0,0,1,5.762,0v1.434a2.881,2.881,0,0,1-5.762,0Zm2.881,5.737a4.317,4.317,0,0,0,1.441-.251v.77a1.842,1.842,0,0,1-1.441.915,1.842,1.842,0,0,1-1.441-.915v-.77A4.317,4.317,0,0,0,15.846,130.04Zm-6.482,3.775a1.442,1.442,0,0,1,1.045-1.379l2.967-.844a3.14,3.14,0,0,0,2.471,1.317,3.138,3.138,0,0,0,2.471-1.318l2.967.844a1.431,1.431,0,0,1,1.014,1.191h-.689a2.159,2.159,0,0,0-2.161,2.151,2.113,2.113,0,0,0,.133.717H9.363Zm-2.881,4.114H28.81v1.434H6.482Zm1.441,5.737h2.161v-1.434H7.923V140.8H26.649v1.434H11.524v1.434H26.649v8.606H7.923Zm0,0" transform="translate(0 -109.05)"/></g></svg>