<svg xmlns="http://www.w3.org/2000/svg" width="44.656" height="44.656" viewBox="0 0 44.656 44.656"><defs><style>.a{fill:#5a4fb7;}</style></defs><g transform="translate(0)"><path class="a" d="M33.3,0A15.231,15.231,0,0,0,17.971,15.093a14.792,14.792,0,0,0,.993,5.355L4.305,34.881a1.092,1.092,0,0,0-.327.778v7.9a1.109,1.109,0,0,0,1.117,1.1h6.611a1.126,1.126,0,0,0,.789-.321l2.228-2.19a1.091,1.091,0,0,0,.328-.778V38.673h2.732a1.109,1.109,0,0,0,1.117-1.1V36.5H20a1.109,1.109,0,0,0,1.117-1.1V33.029h2.4a1.127,1.127,0,0,0,.79-.322l3.555-3.5a15.441,15.441,0,0,0,5.441.979A15.231,15.231,0,0,0,48.634,15.093,15.231,15.231,0,0,0,33.3,0Zm0,27.986a13.173,13.173,0,0,1-5.257-1.081,1.13,1.13,0,0,0-1.229.22l-.01.009-3.752,3.694H20a1.109,1.109,0,0,0-1.117,1.1V34.3h-1.1a1.109,1.109,0,0,0-1.117,1.1v1.078H13.934a1.109,1.109,0,0,0-1.117,1.1V40.91l-1.573,1.546H6.213V40.9L19.869,27.458a.979.979,0,0,0,0-1.4,1.017,1.017,0,0,0-1.422,0L6.213,38.1V36.115L21.07,21.487l.009-.01a1.087,1.087,0,0,0,.224-1.21,12.634,12.634,0,0,1-1.1-5.175,13.1,13.1,0,0,1,26.193,0A13.011,13.011,0,0,1,33.3,27.986Z" transform="translate(-3.978)"/></g><g transform="translate(31.839 5.593)"><g transform="translate(0)"><path class="a" d="M344.013,73.144a3.612,3.612,0,1,0,3.612,3.612A3.616,3.616,0,0,0,344.013,73.144Zm0,5.3a1.683,1.683,0,1,1,1.683-1.683A1.685,1.685,0,0,1,344.013,78.439Z" transform="translate(-340.401 -73.144)"/></g></g></svg>